<?xml version="1.0" encoding="iso-8859-1"?>
<!-- Generator: Adobe Illustrator 19.0.0, SVG Export Plug-In . SVG Version: 6.00 Build 0)  -->
<svg version="1.1" id="Capa_1" xmlns="http://www.w3.org/2000/svg" xmlns:xlink="http://www.w3.org/1999/xlink" x="0px" y="0px"
	 viewBox="0 0 480 480" style="enable-background:new 0 0 480 480;" xml:space="preserve">
<g>
	<polygon style="fill:#FCEE21;" points="16,472 80,472 80,280 16,216 	"/>
	<path style="fill:#FCEE21;" d="M113.52,262.48L112,264v208h64V351.44C143.68,332.8,120.16,300.56,113.52,262.48z"/>
	<path style="fill:#FCEE21;" d="M208,364.4V472h64V364.4c-10.24,2.72-20.96,4.08-32,4.08S218.24,367.12,208,364.4z"/>
	<path style="fill:#FCEE21;" d="M304,351.44V472h64V328l-19.36-19.36C337.44,326.24,322.08,341.04,304,351.44z"/>
	<rect x="400" y="376" style="fill:#FCEE21;" width="64" height="96"/>
</g>
<g>
	<path style="fill:#E23923;" d="M266.24,114.24c-8.48-1.76-17.28-2.72-26.24-2.72c-62,0-113.68,43.84-125.76,102.24L88,240l-72-72
		v-64l72,72L208,56L266.24,114.24z"/>
	<path style="fill:#E23923;" d="M464,280v64h-64l16-16l-52.48-52.48c3.2-11.28,4.96-23.2,4.96-35.52c0-8.96-0.96-17.76-2.72-26.24
		L448,296L464,280z"/>
</g>
<g>
	<path style="fill:#B7A209;" d="M21.656,210.344c-2.289-2.289-5.719-2.969-8.719-1.734C9.945,209.844,8,212.766,8,216v256
		c0,4.422,3.578,8,8,8h64c4.422,0,8-3.578,8-8V280c0-2.125-0.844-4.156-2.344-5.656L21.656,210.344z M24,400v-16h48v16H24z M72,416
		v16H24v-16H72z M24,368v-16h48v16H24z M24,336v-16h48v16H24z M24,304v-16h48v16H24z M24,272v-36.688L60.688,272H24z M24,464v-16h48
		v16H24z"/>
	<path style="fill:#B7A209;" d="M180,344.508c-4.194-2.418-8.174-5.1-12-7.951V336h-0.68c-24.188-18.3-40.685-44.857-45.914-74.898
		c-0.516-2.938-2.625-5.352-5.469-6.25c-2.867-0.906-5.961-0.141-8.07,1.969l-1.523,1.523c-1.5,1.5-2.344,3.531-2.344,5.656v208
		c0,4.422,3.578,8,8,8h64c4.422,0,8-3.578,8-8V351.438C184,348.578,182.477,345.938,180,344.508z M120,400v-16h48v16H120z M168,416
		v16h-48v-16H168z M120,368v-16h42.059c1.951,1.358,3.91,2.705,5.941,3.969V368H120z M143.036,336H120v-30.852
		C126.137,316.46,133.921,326.816,143.036,336z M120,464v-16h48v16H120z"/>
	<path style="fill:#B7A209;" d="M269.945,356.664c-19.047,5.063-40.844,5.063-59.891,0c-2.398-0.633-4.961-0.125-6.93,1.391
		S200,361.914,200,364.398V472c0,4.422,3.578,8,8,8h64c4.422,0,8-3.578,8-8V364.398c0-2.484-1.156-4.828-3.125-6.344
		C274.906,356.547,272.352,356.031,269.945,356.664z M264,374.367V400h-48v-25.633C231.594,377.164,248.406,377.164,264,374.367z
		 M264,416v16h-48v-16H264z M216,464v-16h48v16H216z"/>
	<path style="fill:#B7A209;" d="M354.297,302.984c-1.711-1.711-4.047-2.539-6.531-2.297c-2.406,0.266-4.57,1.609-5.875,3.656
		c-7.785,12.233-17.733,22.963-29.163,31.656H312v0.586c-3.841,2.875-7.841,5.527-11.992,7.914c-2.477,1.43-4.008,4.078-4.008,6.938
		V472c0,4.422,3.578,8,8,8h64c4.422,0,8-3.578,8-8V328c0-2.125-0.844-4.156-2.344-5.656L354.297,302.984z M349.781,321.094
		L360,331.313V336h-23.229C341.415,331.318,345.837,326.406,349.781,321.094z M317.747,352H360v16h-48v-12.031
		C313.976,354.739,315.835,353.331,317.747,352z M312,400v-16h48v16H312z M360,416v16h-48v-16H360z M312,464v-16h48v16H312z"/>
	<path style="fill:#B7A209;" d="M464,368h-64c-4.422,0-8,3.578-8,8v96c0,4.422,3.578,8,8,8h64c4.422,0,8-3.578,8-8v-96
		C472,371.578,468.422,368,464,368z M456,384v16h-48v-16H456z M456,416v16h-48v-16H456z M408,464v-16h48v16H408z"/>
</g>
<rect x="432" style="fill:#76B82B;" width="48" height="16"/>
<rect style="fill:#ED7B15;" width="48" height="16"/>
<rect x="256" y="16" style="fill:#A5D3D6;" width="48" height="16"/>
<rect x="80" y="64" style="fill:#FCEE21;" width="48" height="16"/>
<rect x="368" y="96" style="fill:#F3573B;" width="48" height="16"/>
<rect x="416" y="208" style="fill:#ED7B15;" width="48" height="16"/>
<path style="fill:#B7A209;" d="M375.977,228.391c-1.086-13.305-4.148-26.352-9.102-38.773c-3.875-9.766-8.883-19.07-14.875-27.633
	c-9.273-13.281-20.703-24.711-33.984-33.984c0,0,0,0-0.008,0c-22.984-16.016-49.961-24.477-78.008-24.477
	c-44.617,0-86.484,21.859-112,58.461c-10.039,14.398-17.078,30.25-20.898,47.031c-2.375,9.922-3.578,20.344-3.578,30.984
	c0,3.914,0.164,7.836,0.508,11.625c3.297,39.398,23.664,75.43,55.875,98.844c0.008,0.008,0.008,0.008,0.016,0.016
	c4.141,3.008,8.102,5.594,12.102,7.898c10.984,6.281,22.445,10.922,33.922,13.75c10.867,2.883,22.32,4.344,34.055,4.344
	s23.188-1.461,33.914-4.313c11.617-2.859,23.078-7.5,34.078-13.789c3.984-2.297,7.945-4.883,12.086-7.891
	c0.008-0.008,0.008-0.008,0.016-0.016c32.211-23.414,52.578-59.445,55.906-99.508L375.977,228.391z M312,336
	c-3.695,0-6.805,2.508-7.727,5.914c-1.422,0.914-2.836,1.766-4.25,2.578c-9.688,5.547-19.766,9.633-30.078,12.172
	c-19.047,5.063-40.703,5.094-60.031-0.031c-10.172-2.508-20.25-6.594-29.922-12.133c-1.422-0.813-2.836-1.672-4.266-2.586
	C174.805,338.508,171.695,336,168,336h-0.742c-27.258-20.703-44.445-51.797-47.289-85.75c-0.297-3.367-0.445-6.805-0.445-10.25
	c0-9.391,1.055-18.555,3.156-27.344c3.383-14.852,9.586-28.82,18.445-41.516c22.523-32.32,59.484-51.617,98.875-51.617
	c24.758,0,48.563,7.469,68.859,21.602c11.727,8.188,21.828,18.289,30.023,30.023c5.289,7.555,9.703,15.758,13.125,24.375
	c4.367,10.961,7.07,22.453,7.992,33.516l0.031,21.258c-2.844,33.906-20.031,65-47.289,85.703H312z"/>
<path style="fill:#FCEE21;" d="M360,229.039c-0.922-11.063-3.625-22.555-7.992-33.516c-3.422-8.617-7.836-16.82-13.125-24.375
	c-8.195-11.734-18.297-21.836-30.023-30.023c-20.297-14.133-44.102-21.602-68.859-21.602c-39.391,0-76.352,19.297-98.875,51.617
	c-8.859,12.695-15.063,26.664-18.445,41.516c-2.102,8.789-3.156,17.953-3.156,27.344c0,3.445,0.148,6.883,0.445,10.25
	c2.844,33.953,20.031,65.047,47.289,85.75H168c3.695,0,6.805,2.508,7.727,5.914c1.43,0.914,2.844,1.773,4.266,2.586
	c9.672,5.539,19.75,9.625,29.922,12.133c19.328,5.125,40.984,5.094,60.031,0.031c10.313-2.539,20.391-6.625,30.078-12.172
	c1.414-0.813,2.828-1.664,4.25-2.578c0.922-3.406,4.031-5.914,7.727-5.914h0.742c27.258-20.703,44.445-51.797,47.289-85.703
	L360,229.039z"/>
<path d="M467.063,272.609c-2.992-1.25-6.43-0.555-8.719,1.734L448,284.688l-75.012-75.012
	c-11.585-51.207-51.475-91.091-102.669-102.669l-56.663-56.663c-3.125-3.125-8.188-3.125-11.313,0L88,164.688L21.656,98.344
	c-2.289-2.289-5.719-2.977-8.719-1.734C9.945,97.844,8,100.766,8,104v64c0,2.125,0.844,4.156,2.344,5.656l72,72
	C83.906,247.219,85.953,248,88,248s4.094-0.781,5.656-2.344l10.097-10.097c-0.049,1.48-0.23,2.964-0.23,4.441
	c0,7.018,0.62,13.738,1.612,20.151C104.471,261.335,104,262.615,104,264v208c0,4.422,3.578,8,8,8h64c4.422,0,8-3.578,8-8V364.413
	c5.284,2.385,10.626,4.401,16,6.02V472c0,4.422,3.578,8,8,8h64c4.422,0,8-3.578,8-8V370.427c5.392-1.624,10.73-3.64,16-6.016V472
	c0,4.422,3.578,8,8,8h64c4.422,0,8-3.578,8-8V328c0-2.125-0.844-4.156-2.344-5.656l-15.004-15.004
	c3.126-5.523,5.865-11.253,8.21-17.165L404.688,328l-10.344,10.344c-2.289,2.289-2.977,5.727-1.734,8.719
	c1.234,2.992,4.156,4.938,7.391,4.938h64c4.422,0,8-3.578,8-8v-64C472,276.766,470.055,273.844,467.063,272.609z M357.922,215.391
	c1.695,8.133,2.555,16.414,2.555,24.609c0,11.225-1.561,22.426-4.641,33.315c-3.196,10.967-7.895,21.419-13.945,31.029
	c-7.785,12.233-17.733,22.963-29.163,31.656H312v0.586c-3.841,2.875-7.841,5.527-11.992,7.914c0,0-0.001,0.001-0.002,0.001
	c-9.682,5.542-19.754,9.625-30.061,12.163c-14.285,3.797-30.117,4.746-45.176,2.848c-2.522-0.319-5.028-0.719-7.507-1.199
	c-2.438-0.472-4.844-1.021-7.208-1.649c-0.001,0-0.003,0-0.004,0c-0.045-0.012-0.091-0.02-0.136-0.031
	c-10.172-2.508-20.25-6.594-29.914-12.125c-3.892-2.244-7.63-4.683-11.206-7.301c-0.277-0.203-0.518-0.445-0.794-0.65V336h-0.679
	c-24.189-18.302-40.689-44.872-45.938-75c-1.234-6.578-1.859-13.641-1.859-21c0-8.195,0.859-16.477,2.555-24.625
	c11.484-55.539,61.078-95.852,117.922-95.852c8.195,0,16.477,0.859,24.609,2.555c0.006,0.001,0.012-0.001,0.019,0
	C311.588,131.792,348.211,168.415,357.922,215.391z M312,416h48v16h-48V416z M312,400v-16h48v16H312z M312,368v-12.031
	c1.976-1.229,3.835-2.638,5.747-3.969H360v16H312z M264,374.367V400h-48v-25.633c0.579,0.104,1.182,0.137,1.764,0.233
	c2.835,0.471,5.698,0.85,8.589,1.137c0.883,0.087,1.756,0.18,2.643,0.25c3.638,0.29,7.3,0.488,11.004,0.488
	c3.711,0,7.378-0.199,11.02-0.489c0.869-0.069,1.725-0.16,2.59-0.245c2.94-0.291,5.844-0.675,8.717-1.154
	C262.878,374.498,263.451,374.466,264,374.367z M216,416h48v16h-48V416z M168,368h-48v-16h42.059
	c1.951,1.358,3.91,2.705,5.941,3.969V368z M120.878,306.648c2.025,3.62,4.231,7.129,6.579,10.547
	c0.399,0.582,0.775,1.176,1.183,1.751c2.469,3.478,5.124,6.822,7.916,10.06c0.58,0.672,1.168,1.333,1.761,1.995
	c1.529,1.704,3.102,3.369,4.719,4.998H120v-30.852c0.078,0.143,0.168,0.278,0.246,0.42
	C120.447,305.935,120.674,306.284,120.878,306.648z M120,416h48v16h-48V416z M120,400v-16h48v16H120z M88,228.688l-64-64v-41.375
	l58.344,58.344c3.125,3.125,8.188,3.125,11.313,0L208,67.313l36.281,36.281c-0.771-0.023-1.525,0.043-2.294,0.033
	c-0.662-0.01-1.327-0.103-1.987-0.103c-1.474,0-2.919,0.146-4.385,0.193c-1.736,0.058-3.472,0.105-5.195,0.229
	c-2.435,0.172-4.841,0.449-7.245,0.75c-1.442,0.183-2.887,0.345-4.317,0.573c-2.66,0.421-5.28,0.954-7.893,1.528
	c-1.137,0.251-2.278,0.479-3.406,0.758c-2.851,0.704-5.653,1.527-8.438,2.409c-0.858,0.272-1.723,0.521-2.574,0.811
	c-2.984,1.011-5.909,2.145-8.804,3.354c-0.626,0.262-1.261,0.502-1.882,0.773c-3.033,1.32-5.996,2.765-8.916,4.296
	c-0.468,0.246-0.945,0.474-1.411,0.725c-2.989,1.611-5.898,3.343-8.753,5.167c-0.381,0.243-0.771,0.47-1.149,0.717
	c-2.854,1.862-5.619,3.84-8.325,5.906c-0.363,0.277-0.737,0.538-1.098,0.819c-2.638,2.056-5.182,4.221-7.664,6.464
	c-0.397,0.359-0.809,0.7-1.202,1.063c-2.364,2.187-4.628,4.473-6.836,6.823c-0.463,0.492-0.945,0.965-1.401,1.464
	c-2.049,2.246-3.993,4.583-5.892,6.965c-0.546,0.684-1.115,1.344-1.648,2.039c-1.721,2.247-3.334,4.574-4.917,6.93
	c-0.612,0.909-1.251,1.794-1.842,2.719c-1.407,2.208-2.704,4.488-3.986,6.783c-0.645,1.152-1.32,2.281-1.933,3.455
	c-1.12,2.15-2.126,4.365-3.133,6.584c-0.633,1.392-1.299,2.763-1.887,4.181c-0.867,2.098-1.618,4.253-2.382,6.406
	c-0.571,1.605-1.177,3.19-1.688,4.824c-0.652,2.087-1.184,4.226-1.737,6.357c-0.364,1.4-0.821,2.758-1.141,4.176L88,228.688z
	 M120,464v-16h48v16H120z M216,464v-16h48v16H216z M312,464v-16h48v16H312z M360,336h-23.229c2.509-2.529,4.931-5.131,7.242-7.851
	c1.063-1.25,2.092-2.516,3.111-3.805c0.869-1.099,1.822-2.125,2.658-3.251L360,331.313V336z M456,336h-36.688l2.344-2.344
	c3.125-3.125,3.125-8.188,0-11.313l-49.219-49.219c0.229-0.927,0.392-1.866,0.601-2.796c0.259-1.147,0.511-2.293,0.741-3.446
	c0.364-1.834,0.675-3.675,0.965-5.521c0.18-1.146,0.374-2.29,0.525-3.439c0.262-1.992,0.45-3.99,0.625-5.99
	c0.086-0.989,0.206-1.974,0.271-2.964c0.196-2.986,0.312-5.977,0.312-8.969c0-1.422-0.023-2.852-0.07-4.281l65.938,65.938
	c3.125,3.125,8.188,3.125,11.313,0l2.344-2.344V336z"/>
<path d="M21.656,210.344c-2.289-2.289-5.719-2.969-8.719-1.734C9.945,209.844,8,212.766,8,216v256c0,4.422,3.578,8,8,8h64
	c4.422,0,8-3.578,8-8V280c0-2.125-0.844-4.156-2.344-5.656L21.656,210.344z M24,400v-16h48v16H24z M72,416v16H24v-16H72z M24,368
	v-16h48v16H24z M24,336v-16h48v16H24z M24,304v-16h48v16H24z M24,272v-36.688L60.688,272H24z M24,464v-16h48v16H24z"/>
<path d="M464,368h-64c-4.422,0-8,3.578-8,8v96c0,4.422,3.578,8,8,8h64c4.422,0,8-3.578,8-8v-96C472,371.578,468.422,368,464,368z
	 M456,384v16h-48v-16H456z M456,416v16h-48v-16H456z M408,464v-16h48v16H408z"/>
<path d="M196.664,144.992c-22.938,10.508-41.313,28.867-51.734,51.68l14.547,6.656c8.836-19.328,24.406-34.875,43.859-43.789
	L196.664,144.992z"/>
<path d="M283.313,335.109c2.938-1.336,5.844-2.828,8.719-4.477c14.617-8.398,27.156-20.414,36.305-34.781
	c2.516-4,4.789-8.219,6.758-12.523l-14.547-6.656c-1.68,3.672-3.617,7.258-5.734,10.625c-7.734,12.164-18.375,22.352-30.742,29.453
	c-2.43,1.391-4.898,2.664-7.383,3.797L283.313,335.109z"/>
<path d="M240,184c13.234,0,24,10.766,24,24h16c0-19.315-13.766-35.474-32-39.191V152h-16v16.809c-18.234,3.717-32,19.876-32,39.191
	c0,22.055,17.945,40,40,40c13.234,0,24,10.766,24,24s-10.766,24-24,24s-24-10.766-24-24h-16c0,19.315,13.766,35.474,32,39.191V328
	h16v-16.809c18.234-3.717,32-19.876,32-39.191c0-22.055-17.945-40-40-40c-13.234,0-24-10.766-24-24S226.766,184,240,184z"/>
<rect x="152" y="232" width="16" height="16"/>
<rect x="312" y="232" width="16" height="16"/>
<rect x="432" width="48" height="16"/>
<rect width="48" height="16"/>
<rect x="256" y="16" width="48" height="16"/>
<rect x="80" y="64" width="48" height="16"/>
<rect x="368" y="96" width="48" height="16"/>
<rect x="416" y="208" width="48" height="16"/>
<g>
</g>
<g>
</g>
<g>
</g>
<g>
</g>
<g>
</g>
<g>
</g>
<g>
</g>
<g>
</g>
<g>
</g>
<g>
</g>
<g>
</g>
<g>
</g>
<g>
</g>
<g>
</g>
<g>
</g>
</svg>
