<?xml version="1.0" encoding="iso-8859-1"?>
<!-- Generator: Adobe Illustrator 19.0.0, SVG Export Plug-In . SVG Version: 6.00 Build 0)  -->
<svg version="1.1" id="Capa_1" xmlns="http://www.w3.org/2000/svg" xmlns:xlink="http://www.w3.org/1999/xlink" x="0px" y="0px"
	 viewBox="0 0 480 480" style="enable-background:new 0 0 480 480;" xml:space="preserve">
<g>
	<polygon style="fill:#FCEE21;" points="16,296 16,472 80,472 80,232 	"/>
	<path style="fill:#FCEE21;" d="M112,250.96V472h64V351.44C140.48,330.96,115.6,294,112,250.96z"/>
	<path style="fill:#FCEE21;" d="M208,364.4V472h64V364.4c-10.24,2.72-20.96,4.08-32,4.08S218.24,367.12,208,364.4z"/>
	<path style="fill:#FCEE21;" d="M304,351.44V472h64V250.96C364.4,294,339.52,330.96,304,351.44z"/>
	<polygon style="fill:#FCEE21;" points="400,152 400,472 464,472 464,88 	"/>
</g>
<g>
	<path style="fill:#B7A209;" d="M276.875,358.055c-1.969-1.508-4.523-2.023-6.93-1.391c-19.047,5.063-40.844,5.063-59.891,0
		c-2.406-0.633-4.953-0.125-6.93,1.391c-1.969,1.516-3.125,3.859-3.125,6.344V472c0,4.422,3.578,8,8,8h64c4.422,0,8-3.578,8-8
		V364.398C280,361.914,278.844,359.57,276.875,358.055z M264,374.367V400h-48v-25.633C231.594,377.164,248.406,377.164,264,374.367z
		 M264,416v16h-48v-16H264z M216,464v-16h48v16H216z"/>
	<path style="fill:#B7A209;" d="M179.992,344.508c-4.183-2.412-8.175-5.069-11.992-7.919V336h-0.759
		c-27.039-20.529-44.412-51.59-47.272-85.703c-0.352-4.281-4.117-7.656-8.305-7.328c-4.281,0.18-7.664,3.703-7.664,7.992V472
		c0,4.422,3.578,8,8,8h64c4.422,0,8-3.578,8-8V351.438C184,348.578,182.477,345.938,179.992,344.508z M120,400v-16h48v16H120z
		 M168,416v16h-48v-16H168z M120,368v-16h42.066c1.948,1.358,3.906,2.706,5.934,3.969V368H120z M143.083,336H120v-30.961
		C126.151,316.376,133.951,326.778,143.083,336z M120,464v-16h48v16H120z"/>
	<path style="fill:#B7A209;" d="M467.063,80.609c-3-1.242-6.43-0.555-8.719,1.734l-64,64c-1.5,1.5-2.344,3.531-2.344,5.656v320
		c0,4.422,3.578,8,8,8h64c4.422,0,8-3.578,8-8V88C472,84.766,470.055,81.844,467.063,80.609z M456,144h-36.688L456,107.313V144z
		 M408,400v-16h48v16H408z M456,416v16h-48v-16H456z M408,368v-16h48v16H408z M408,336v-16h48v16H408z M408,304v-16h48v16H408z
		 M408,272v-16h48v16H408z M408,240v-16h48v16H408z M408,208v-16h48v16H408z M408,176v-16h48v16H408z M408,464v-16h48v16H408z"/>
	<path style="fill:#B7A209;" d="M368.336,242.969c-4.258-0.297-7.945,3.047-8.305,7.328c-2.861,34.113-20.233,65.174-47.272,85.703
		H312v0.588c-3.817,2.851-7.809,5.508-11.992,7.919c-2.484,1.43-4.008,4.07-4.008,6.93V472c0,4.422,3.578,8,8,8h64
		c4.422,0,8-3.578,8-8V250.961C376,246.672,372.617,243.148,368.336,242.969z M360,305.039V336h-23.083
		C346.049,326.778,353.849,316.376,360,305.039z M317.934,352H360v16h-48v-12.031C314.028,354.706,315.986,353.358,317.934,352z
		 M312,400v-16h48v16H312z M360,416v16h-48v-16H360z M312,464v-16h48v16H312z"/>
	<path style="fill:#B7A209;" d="M83.063,224.609c-2.992-1.25-6.43-0.555-8.719,1.734l-64,64C8.844,291.844,8,293.875,8,296v176
		c0,4.422,3.578,8,8,8h64c4.422,0,8-3.578,8-8V232C88,228.766,86.055,225.844,83.063,224.609z M72,272H51.313L72,251.313V272z
		 M35.313,288H72v16H24v-4.688L35.313,288z M24,400v-16h48v16H24z M72,416v16H24v-16H72z M24,368v-16h48v16H24z M24,336v-16h48v16
		H24z M24,464v-16h48v16H24z"/>
</g>
<g>
	<path style="fill:#76B82B;" d="M88,120L8,200v64l80-80l26.88,26.88c3.68-16.16,10.48-31.12,19.68-44.32L88,120z"/>
	<path style="fill:#76B82B;" d="M472,8h-64l16,16L313.44,134.56c12.48,8.72,23.28,19.52,32,32L456,56l16,16V8z"/>
</g>
<path style="fill:#B7A209;" d="M375.977,228.391c-1.086-13.305-4.148-26.352-9.102-38.773c-3.875-9.766-8.883-19.07-14.875-27.633
	c-9.273-13.281-20.703-24.711-33.984-33.984c0,0,0,0-0.008,0c-22.984-16.016-49.961-24.477-78.008-24.477
	c-44.617,0-86.484,21.859-112,58.461c-10.039,14.398-17.078,30.25-20.898,47.031c-2.375,9.922-3.578,20.344-3.578,30.984
	c0,3.914,0.164,7.836,0.508,11.625c3.297,39.398,23.664,75.43,55.875,98.844c0.008,0.008,0.008,0.008,0.016,0.016
	c4.141,3.008,8.102,5.594,12.102,7.898c10.984,6.281,22.445,10.922,33.922,13.75c10.867,2.883,22.32,4.344,34.055,4.344
	s23.188-1.461,33.914-4.313c11.617-2.859,23.078-7.5,34.078-13.789c3.984-2.297,7.945-4.883,12.086-7.891
	c0.008-0.008,0.008-0.008,0.016-0.016c32.211-23.414,52.578-59.445,55.906-99.508L375.977,228.391z M312,336
	c-3.695,0-6.805,2.508-7.727,5.914c-1.422,0.914-2.836,1.766-4.25,2.578c-9.688,5.547-19.766,9.633-30.078,12.172
	c-19.047,5.063-40.703,5.094-60.031-0.031c-10.172-2.508-20.25-6.594-29.922-12.133c-1.422-0.813-2.836-1.672-4.266-2.586
	C174.805,338.508,171.695,336,168,336h-0.742c-27.258-20.703-44.445-51.797-47.289-85.75c-0.297-3.367-0.445-6.805-0.445-10.25
	c0-9.391,1.055-18.555,3.156-27.344c3.383-14.852,9.586-28.82,18.445-41.516c22.523-32.32,59.484-51.617,98.875-51.617
	c24.758,0,48.563,7.469,68.859,21.602c11.727,8.188,21.828,18.289,30.023,30.023c5.289,7.555,9.703,15.758,13.125,24.375
	c4.367,10.961,7.07,22.453,7.992,33.516l0.031,21.258c-2.844,33.906-20.031,65-47.289,85.703H312z"/>
<path style="fill:#FCEE21;" d="M360,229.039c-0.922-11.063-3.625-22.555-7.992-33.516c-3.422-8.617-7.836-16.82-13.125-24.375
	c-8.195-11.734-18.297-21.836-30.023-30.023c-20.297-14.133-44.102-21.602-68.859-21.602c-39.391,0-76.352,19.297-98.875,51.617
	c-8.859,12.695-15.063,26.664-18.445,41.516c-2.102,8.789-3.156,17.953-3.156,27.344c0,3.445,0.148,6.883,0.445,10.25
	c2.844,33.953,20.031,65.047,47.289,85.75H168c3.695,0,6.805,2.508,7.727,5.914c1.43,0.914,2.844,1.773,4.266,2.586
	c9.672,5.539,19.75,9.625,29.922,12.133c19.328,5.125,40.984,5.094,60.031,0.031c10.313-2.539,20.391-6.625,30.078-12.172
	c1.414-0.813,2.828-1.664,4.25-2.578c0.922-3.406,4.031-5.914,7.727-5.914h0.742c27.258-20.703,44.445-51.797,47.289-85.703
	L360,229.039z"/>
<polygon style="fill:#A5D3D6;" points="336,16 320,16 320,0 304,0 304,16 288,16 288,32 304,32 304,48 320,48 320,32 336,32 "/>
<polygon style="fill:#FCEE21;" points="176,48 160,48 160,64 144,64 144,80 160,80 160,96 176,96 176,80 192,80 192,64 176,64 "/>
<polygon style="fill:#ED7B15;" points="32,0 16,0 16,16 0,16 0,32 16,32 16,48 32,48 32,32 48,32 48,16 32,16 "/>
<path d="M472,0h-64c-3.234,0-6.156,1.945-7.391,4.938c-1.242,2.992-0.555,6.43,1.734,8.719L412.688,24L312.332,124.356
	c-21.706-13.599-46.546-20.833-72.332-20.833c-41.438,0-80.482,18.876-106.279,50.885l-40.064-40.064
	c-3.125-3.125-8.188-3.125-11.313,0l-80,80C0.844,195.844,0,197.875,0,200v64c0,3.234,1.945,6.156,4.938,7.391
	C5.93,271.805,6.969,272,8,272c2.078,0,4.125-0.813,5.656-2.344L88,195.313l18.293,18.293c-1.716,8.548-2.77,17.358-2.77,26.394
	c0,3.688,0.175,7.368,0.479,10.952c0,0.003-0.002,0.006-0.002,0.009V472c0,4.422,3.578,8,8,8h64c4.422,0,8-3.578,8-8V364.413
	c5.284,2.385,10.626,4.401,16,6.02V472c0,4.422,3.578,8,8,8h64c4.422,0,8-3.578,8-8V370.427c5.392-1.624,10.73-3.64,16-6.019V472
	c0,4.422,3.578,8,8,8h64c4.422,0,8-3.578,8-8V250.961v-0.007c0.302-3.609,0.477-7.28,0.477-10.954s-0.175-7.344-0.477-10.954v-0.007
	c0-0.219-0.008-0.43-0.023-0.648c-1.086-13.305-4.148-26.352-9.102-38.773c-3.038-7.657-6.96-14.906-11.32-21.86L456,67.313
	l10.344,10.344c2.297,2.289,5.734,2.984,8.719,1.734C478.055,78.156,480,75.234,480,72V8C480,3.578,476.422,0,472,0z
	 M82.344,178.344L16,244.688v-41.375l72-72l36.281,36.289c-0.472,0.752-0.82,1.559-1.276,2.318
	c-1.649,2.744-3.167,5.541-4.609,8.375c-0.75,1.473-1.534,2.928-2.227,4.424c-1.625,3.507-3.057,7.084-4.367,10.707
	c-0.266,0.737-0.635,1.435-0.888,2.176l-17.258-17.258C90.531,175.219,85.469,175.219,82.344,178.344z M168,355.969V368h-48v-16
	h42.066c0.138,0.096,0.281,0.185,0.419,0.28c1.355,0.938,2.722,1.861,4.116,2.753C167.075,355.336,167.522,355.671,168,355.969z
	 M122.986,310.145c0.56,0.934,1.089,1.886,1.672,2.807c1.179,1.863,2.431,3.678,3.699,5.483c0.356,0.506,0.68,1.033,1.042,1.534
	c1.646,2.275,3.367,4.499,5.153,6.672c0.613,0.747,1.275,1.455,1.905,2.188c1.216,1.417,2.429,2.837,3.705,4.207
	c0.785,0.842,1.615,1.644,2.422,2.468c0.163,0.166,0.324,0.333,0.488,0.498H120v-30.961c0.112,0.207,0.243,0.403,0.356,0.61
	C121.192,307.171,122.092,308.656,122.986,310.145z M120,416h48v16h-48V416z M120,400v-16h48v16H120z M120,464v-16h48v16H120z
	 M226.353,375.738c0.883,0.087,1.756,0.18,2.643,0.25c3.638,0.29,7.3,0.488,11.004,0.488c3.711,0,7.378-0.199,11.02-0.489
	c0.869-0.069,1.725-0.16,2.59-0.245c2.94-0.291,5.844-0.675,8.717-1.154c0.552-0.091,1.125-0.123,1.673-0.222V400h-48v-25.633
	c0.579,0.104,1.182,0.137,1.764,0.233C220.6,375.071,223.462,375.45,226.353,375.738z M216,416h48v16h-48V416z M216,464v-16h48v16
	H216z M341.856,330.743c7.013-7.871,13.135-16.471,18.144-25.704V336h-23.083c1.033-1.043,2.082-2.071,3.08-3.146
	C340.635,332.166,341.233,331.444,341.856,330.743z M312,416h48v16h-48V416z M312,400v-16h48v16H312z M312,368v-12.031
	c0.512-0.319,0.992-0.677,1.499-1.002c1.322-0.847,2.618-1.724,3.905-2.612c0.175-0.12,0.356-0.233,0.53-0.354H360v16H312z M312,464
	v-16h48v16H312z M360,250.511c-0.414,4.828-1.105,9.599-2.085,14.283c-4.976,23.773-17.076,45.424-34.518,62.162
	c-3.346,3.21-6.912,6.215-10.639,9.044H312v0.585c-3.812,2.846-7.799,5.499-11.977,7.907c-9.688,5.547-19.766,9.633-30.078,12.172
	c-14.285,3.797-30.117,4.746-45.176,2.848c-2.522-0.319-5.028-0.719-7.507-1.199c-2.438-0.472-4.844-1.021-7.208-1.649
	c-0.001,0-0.003,0-0.004,0c-0.045-0.012-0.091-0.02-0.136-0.031c-10.172-2.508-20.25-6.594-29.922-12.125
	c-4.183-2.412-8.175-5.069-11.992-7.919V336h-0.759c-27.039-20.529-44.412-51.596-47.272-85.75
	c-0.297-3.367-0.445-6.805-0.445-10.25c0-9.391,1.055-18.555,3.156-27.344c3.383-14.852,9.586-28.82,18.445-41.516
	c22.523-32.32,59.484-51.617,98.875-51.617c24.758,0,48.57,7.469,68.859,21.602c2.932,2.047,5.762,4.213,8.486,6.495
	s5.342,4.678,7.85,7.186c5.015,5.015,9.586,10.471,13.68,16.334c0.001,0.002,0.005,0.003,0.006,0.006
	c0,0.001,0.001,0.001,0.001,0.002c5.289,7.555,9.703,15.758,13.125,24.375c4.328,10.859,7.016,22.25,7.992,33.852V250.511z
	 M464,52.688l-2.344-2.344c-3.125-3.125-8.188-3.125-11.313,0L346.297,154.391c-0.232-0.288-0.505-0.537-0.739-0.823
	c-5.728-6.993-12.111-13.378-19.105-19.107c-0.293-0.24-0.548-0.52-0.843-0.757L429.656,29.656c3.125-3.125,3.125-8.188,0-11.313
	L427.313,16H464V52.688z"/>
<path d="M83.063,224.609c-2.992-1.25-6.43-0.555-8.719,1.734l-64,64C8.844,291.844,8,293.875,8,296v176c0,4.422,3.578,8,8,8h64
	c4.422,0,8-3.578,8-8V232C88,228.766,86.055,225.844,83.063,224.609z M72,272H51.313L72,251.313V272z M35.313,288H72v16H24v-4.688
	L35.313,288z M24,400v-16h48v16H24z M72,416v16H24v-16H72z M24,368v-16h48v16H24z M24,336v-16h48v16H24z M24,464v-16h48v16H24z"/>
<path d="M467.063,80.609c-3-1.242-6.43-0.555-8.719,1.734l-64,64c-1.5,1.5-2.344,3.531-2.344,5.656v320c0,4.422,3.578,8,8,8h64
	c4.422,0,8-3.578,8-8V88C472,84.766,470.055,81.844,467.063,80.609z M456,144h-36.688L456,107.313V144z M408,400v-16h48v16H408z
	 M456,416v16h-48v-16H456z M408,368v-16h48v16H408z M408,336v-16h48v16H408z M408,304v-16h48v16H408z M408,272v-16h48v16H408z
	 M408,240v-16h48v16H408z M408,208v-16h48v16H408z M408,176v-16h48v16H408z M408,464v-16h48v16H408z"/>
<path d="M240,232c-13.234,0-24-10.766-24-24s10.766-24,24-24s24,10.766,24,24h16c0-19.315-13.766-35.474-32-39.191V152h-16v16.809
	c-18.234,3.717-32,19.876-32,39.191c0,22.055,17.945,40,40,40c13.234,0,24,10.766,24,24s-10.766,24-24,24s-24-10.766-24-24h-16
	c0,19.315,13.766,35.474,32,39.191V328h16v-16.809c18.234-3.717,32-19.876,32-39.191C280,249.945,262.055,232,240,232z"/>
<rect x="152" y="232" width="16" height="16"/>
<rect x="312" y="232" width="16" height="16"/>
<polygon points="304,48 320,48 320,32 336,32 336,16 320,16 320,0 304,0 304,16 288,16 288,32 304,32 "/>
<polygon points="160,96 176,96 176,80 192,80 192,64 176,64 176,48 160,48 160,64 144,64 144,80 160,80 "/>
<polygon points="16,48 32,48 32,32 48,32 48,16 32,16 32,0 16,0 16,16 0,16 0,32 16,32 "/>
<path d="M196.664,145.164c-22.938,10.508-41.313,28.859-51.734,51.672l14.547,6.656c8.836-19.32,24.406-34.867,43.859-43.781
	L196.664,145.164z"/>
<path d="M314.813,287.469c-7.734,12.164-18.375,22.352-30.742,29.453c-2.438,1.398-4.906,2.664-7.406,3.805l6.672,14.547
	c2.922-1.344,5.828-2.828,8.695-4.469c14.617-8.398,27.156-20.414,36.305-34.789c2.516-4.008,4.789-8.219,6.758-12.516
	l-14.547-6.656C318.867,280.508,316.93,284.094,314.813,287.469z"/>
<g>
</g>
<g>
</g>
<g>
</g>
<g>
</g>
<g>
</g>
<g>
</g>
<g>
</g>
<g>
</g>
<g>
</g>
<g>
</g>
<g>
</g>
<g>
</g>
<g>
</g>
<g>
</g>
<g>
</g>
</svg>
