<?xml version="1.0" encoding="iso-8859-1"?>
<!-- Generator: Adobe Illustrator 19.0.0, SVG Export Plug-In . SVG Version: 6.00 Build 0)  -->
<svg version="1.1" id="Capa_1" xmlns="http://www.w3.org/2000/svg" xmlns:xlink="http://www.w3.org/1999/xlink" x="0px" y="0px"
	 viewBox="0 0 512 512" style="enable-background:new 0 0 512 512;" xml:space="preserve">
<path style="fill:#1689FC;" d="M497,256c0,64.2-25.901,124.499-71.201,169.799C380.501,471.099,320.2,497,256,497
	s-124.501-25.901-169.799-71.201C40.901,380.499,15,320.2,15,256S40.901,131.499,86.201,86.199C131.499,40.899,191.8,15,256,15
	s124.501,25.899,169.799,71.199C471.099,131.499,497,191.8,497,256z"/>
<path style="fill:#57555C;" d="M436.3,75.7C388.001,27.4,324.101,0,256,0S123.999,27.4,75.7,75.7S0,187.899,0,256
	c0,65.895,25.681,130.281,75.7,180.3C124,484.6,187.9,512,256,512s132.001-27.4,180.3-75.7C484.6,387.999,512,324.099,512,256
	C512,187.899,484.6,123.999,436.3,75.7z M415,415c-42.299,42.599-99,67-159,67s-116.7-24.401-159-67c-42.599-42.3-67-99-67-159
	S54.401,139.3,97,97c42.299-42.601,99-67,159-67s116.7,24.399,159,67c42.599,42.299,67,99,67,159S457.599,372.7,415,415z"/>
<path style="fill:#136EF1;" d="M497,256c0,64.2-25.901,124.499-71.201,169.799C380.501,471.099,320.2,497,256,497V15
	c64.2,0,124.501,25.899,169.799,71.199C471.099,131.499,497,191.8,497,256z"/>
<path style="fill:#3C3A41;" d="M512,256c0,68.099-27.4,131.999-75.7,180.3C388,484.6,324.1,512,256,512v-30
	c60,0,116.7-24.401,159-67c42.599-42.299,67-99,67-159s-24.401-116.7-67-159c-42.3-42.601-99-67-159-67V0
	c68.101,0,132.001,27.4,180.3,75.7S512,187.899,512,256z"/>
<path style="fill:#CAE8F9;" d="M361,196c0,28.2-10.8,54.3-30.901,74.399c-7.5,7.5-16.199,13.801-25.8,18.9
	c-9,4.501-14.7,10.8-17.1,18.3v0.601c-0.298,0.3-0.298,0.3-0.298,0.601c-3.602,12.9-15.3,22.2-28.801,22.2c-0.601,0-1.5,0-2.1-0.3
	c-8.699-0.3-16.199-4.501-21.599-11.4c-6-7.2-7.8-16.5-5.7-25.499C233.2,276.4,242.199,261.7,256,250.3
	c6-5.7,12.9-10.201,20.7-14.401C291.4,228.399,301,213.1,301,196c0-24-18.3-44.101-45-44.101c-27.001,0-45,20.101-45,44.101
	c0,16.5-13.5,30-30,30s-30-13.5-30-30c0-56.1,43.801-104.101,105-104.101C316.901,91.899,361,139.6,361,196z"/>
<g>
	<path style="fill:#B7E0F6;" d="M286,391c0,16.5-13.5,30-30,30s-30-13.5-30-30s13.5-30,30-30S286,374.5,286,391z"/>
	<path style="fill:#B7E0F6;" d="M286,391c0,16.5-13.5,30-30,30v-60C272.5,361,286,374.5,286,391z"/>
	<path style="fill:#B7E0F6;" d="M361,196c0,28.2-10.8,54.3-30.901,74.399c-7.5,7.5-16.199,13.801-25.8,18.9
		c-9,4.501-14.7,10.8-17.1,18.3v0.601c-0.298,0.3-0.298,0.3-0.298,0.601c-3.602,12.9-15.3,22.2-28.801,22.2c-0.601,0-1.5,0-2.1-0.3
		v-80.4c6-5.7,12.9-10.201,20.7-14.401c14.7-7.501,24.3-22.8,24.3-39.9c0-24-18.3-44.101-45-44.101v-60
		C316.901,91.899,361,139.6,361,196z"/>
</g>
<g>
</g>
<g>
</g>
<g>
</g>
<g>
</g>
<g>
</g>
<g>
</g>
<g>
</g>
<g>
</g>
<g>
</g>
<g>
</g>
<g>
</g>
<g>
</g>
<g>
</g>
<g>
</g>
<g>
</g>
</svg>
