<?xml version="1.0" encoding="iso-8859-1"?>
<!-- Generator: Adobe Illustrator 19.0.0, SVG Export Plug-In . SVG Version: 6.00 Build 0)  -->
<svg version="1.1" id="Capa_1" xmlns="http://www.w3.org/2000/svg" xmlns:xlink="http://www.w3.org/1999/xlink" x="0px" y="0px"
	 viewBox="0 0 512 512" style="enable-background:new 0 0 512 512;" xml:space="preserve">
<path style="fill:#FF644A;" d="M419.319,42.993L310.6,55.69c-2.467,0.288-3.287,3.448-1.283,4.916
	c51.944,38.052,110.762,65.694,173.208,81.4c2.409,0.606,4.318-2.042,2.966-4.125l-59.608-91.803
	C424.459,43.885,421.915,42.69,419.319,42.993z"/>
<path style="fill:#E52D15;" d="M485.491,137.881l-59.608-91.803c-1.423-2.192-3.967-3.388-6.563-3.084l-21.401,2.499
	c-15.993,1.868-24.46,19.884-15.691,33.389l24.232,37.32c24.57,10.606,50.004,19.251,76.075,25.807
	C484.938,142.612,486.84,139.959,485.491,137.881z"/>
<circle style="fill:#FED130;" cx="353.629" cy="181.31" r="65.753"/>
<path style="fill:#EFBE25;" d="M353.625,115.555c-9.881,0-19.245,2.194-27.653,6.098c22.494,10.445,38.099,33.221,38.099,59.655
	s-15.606,49.209-38.099,59.655c8.408,3.904,17.772,6.098,27.653,6.098c36.314,0,65.753-29.438,65.753-65.753
	S389.94,115.555,353.625,115.555z"/>
<circle style="fill:#FFE5B8;" cx="353.629" cy="181.31" r="45.43"/>
<path style="fill:#77D057;" d="M218.854,202.907c-27.148-53.255-48.961-127.441-59.431-185.979c-0.329-1.84-2.967-1.841-3.279,0.003
	c-9.278,54.869-19.349,131.822-28.115,185.976H218.854z"/>
<path style="fill:#67BC44;" d="M197.689,202.907L69.645,8.101c-1.076-1.606-3.565-0.4-2.972,1.439l62.558,193.366h68.458V202.907z"
	/>
<path style="fill:#77D057;" d="M189.684,202.907C161.607,178.528,66.922,98.997,29.189,101.303c-2.99,0.183-4.246,3.894-1.944,5.811
	c15.41,12.834,60.339,52.408,83.648,95.792L189.684,202.907L189.684,202.907z"/>
<path style="fill:#67BC44;" d="M216.353,202.907c-13.521-52.3,6.777-126.638,13.566-148.929c0.873-2.866-2.213-5.28-4.813-3.792
	c-38.735,22.162-70.798,152.718-70.798,152.721L216.353,202.907L216.353,202.907z"/>
<path style="fill:#FD9727;" d="M231.033,192.27c-43.592,0-83.349-1.913-113.457-5.058c-8.248-0.862-15.96,4.239-18.411,12.162
	c-16.014,51.775-58.342,222.206,52.264,292.544c15.728,10.002,34.467,14.173,53.013,12.313l18.104-1.815
	c5.643-0.566,11.329-0.566,16.972,0l18.104,1.815c18.546,1.86,37.285-2.311,53.013-12.313
	c110.607-70.338,68.279-240.77,52.264-292.544c-2.451-7.923-10.163-13.023-18.411-12.162
	C314.382,190.357,274.625,192.27,231.033,192.27z"/>
<path style="fill:#FFE5B8;" d="M366.565,211.842c-1.308-4.674-2.551-8.867-3.665-12.468c-2.451-7.923-10.163-13.023-18.411-12.162
	c-30.107,3.145-69.864,5.058-113.457,5.058s-83.349-1.913-113.457-5.058c-8.248-0.861-15.96,4.239-18.411,12.162
	c-1.114,3.6-2.357,7.794-3.665,12.468H366.565z"/>
<path style="fill:#E57F23;" d="M362.9,199.374c-2.451-7.922-10.163-13.023-18.411-12.162c-11.343,1.185-24.057,2.194-37.828,2.993
	c12.169,36.179,69.169,226.368-49.31,301.713c-7.323,4.657-15.304,8.033-23.609,10.141c1.928,0.062,3.855,0.164,5.777,0.357
	l18.104,1.815c18.546,1.86,37.285-2.311,53.013-12.313C421.242,421.58,378.914,251.149,362.9,199.374z"/>
<path style="fill:#EDD0A6;" d="M313.281,211.842h53.284c-0.09-0.321-0.177-0.622-0.266-0.938c-0.233-0.825-0.466-1.653-0.693-2.446
	c-0.295-1.027-0.585-2.021-0.87-2.992c-0.019-0.065-0.039-0.136-0.058-0.201c-0.008-0.026-0.015-0.052-0.023-0.078
	c-0.282-0.957-0.557-1.878-0.828-2.777c-0.028-0.092-0.056-0.188-0.084-0.28c-0.288-0.952-0.569-1.873-0.842-2.755
	c-0.138-0.446-0.298-0.88-0.469-1.308c-0.051-0.127-0.105-0.251-0.159-0.376c-0.133-0.312-0.274-0.619-0.424-0.92
	c-0.06-0.12-0.118-0.242-0.181-0.36c-0.21-0.4-0.43-0.793-0.669-1.171c-0.001-0.002-0.002-0.003-0.003-0.005
	c-0.239-0.379-0.496-0.744-0.762-1.1c-0.08-0.107-0.163-0.211-0.244-0.315c-0.202-0.259-0.412-0.512-0.628-0.758
	c-0.087-0.099-0.172-0.199-0.261-0.296c-0.298-0.325-0.605-0.642-0.926-0.943c-0.002-0.002-0.004-0.004-0.006-0.006
	c-0.321-0.301-0.657-0.584-0.999-0.859c-0.103-0.082-0.208-0.161-0.313-0.241c-0.258-0.197-0.521-0.387-0.789-0.57
	c-0.109-0.074-0.217-0.149-0.327-0.221c-0.368-0.239-0.743-0.469-1.129-0.68c-0.001-0.001-0.003-0.001-0.004-0.002
	c-0.386-0.211-0.782-0.402-1.183-0.583c-0.12-0.054-0.242-0.104-0.363-0.156c-0.3-0.127-0.604-0.246-0.911-0.356
	c-0.125-0.045-0.249-0.091-0.375-0.133c-0.417-0.139-0.838-0.268-1.266-0.375c-0.003-0.001-0.007-0.002-0.01-0.003
	c-0.48-0.12-0.967-0.22-1.46-0.299c-0.985-0.158-1.992-0.232-3.013-0.216c-0.51,0.008-1.024,0.039-1.539,0.092
	c-11.343,1.185-24.057,2.195-37.828,2.993C308.26,194.959,310.634,202.38,313.281,211.842z"/>
<path d="M353.625,148.837c-4.055,0-7.342,3.287-7.342,7.342v3.191c0,4.055,3.287,7.342,7.342,7.342c4.055,0,7.342-3.287,7.342-7.342
	v-3.191C360.968,152.124,357.68,148.837,353.625,148.837z"/>
<path d="M386.097,181.308c0-4.055-3.287-7.342-7.342-7.342h-3.192c-4.055,0-7.342,3.287-7.342,7.342s3.287,7.342,7.342,7.342h3.192
	C382.809,188.65,386.097,185.363,386.097,181.308z"/>
<path d="M341.049,158.348c-2.866-2.868-7.515-2.867-10.383-0.001c-2.868,2.867-2.868,7.515-0.001,10.383l2.257,2.257
	c1.434,1.434,3.313,2.151,5.192,2.151s3.758-0.717,5.191-2.15c2.868-2.867,2.868-7.515,0.001-10.383L341.049,158.348z"/>
<path d="M374.33,170.987l2.257-2.257c2.867-2.868,2.867-7.516-0.001-10.383c-2.867-2.866-7.516-2.866-10.383,0.001l-2.257,2.257
	c-2.867,2.868-2.867,7.516,0.001,10.383c1.434,1.433,3.313,2.15,5.191,2.15C371.017,173.138,372.896,172.421,374.33,170.987z"/>
<path d="M491.649,133.883L432.04,42.078c-2.965-4.565-8.165-7.012-13.572-6.378l0,0l-108.72,12.697
	c-4.14,0.485-7.501,3.401-8.563,7.428c-1.064,4.035,0.425,8.236,3.794,10.704c24.293,17.795,49.888,33.268,76.621,46.358
	l-0.369,0.755c0.001,0,0.001,0,0.002,0.001c-8.524-3.49-17.841-5.43-27.607-5.43c-40.305,0-73.095,32.79-73.095,73.095
	c0,0.915,0.018,1.833,0.053,2.752c-15.913,0.568-32.586,0.868-49.55,0.868c-3.542,0-7.066-0.018-10.58-0.043
	c-6.076-49.11,10.936-110.533,16.49-128.767c1.277-4.191-0.108-8.663-3.528-11.391c-3.438-2.742-8.13-3.101-11.954-0.913l0,0
	c-12.225,6.994-24.508,23.31-36.724,48.693c-7.493-25.983-13.677-52.228-18.085-76.87c-0.771-4.313-4.498-7.431-8.872-7.431
	c-0.014,0-0.029,0-0.044,0c-4.385,0.021-8.099,3.176-8.83,7.502c-4.106,24.282-8.414,53.208-12.426,80.707L75.745,4.014
	c-2.526-3.772-7.326-5.075-11.411-3.094c-4.086,1.978-6.041,6.551-4.646,10.881l35.344,109.245
	c-29.874-19.094-51.62-27.962-66.289-27.072c-4.398,0.269-8.125,3.142-9.494,7.321c-1.363,4.159-0.067,8.657,3.299,11.46
	c7.762,6.465,23.218,19.897,39.527,37.225c2.778,2.952,7.425,3.093,10.379,0.315c2.953-2.779,3.094-7.426,0.315-10.379
	c-11.09-11.785-21.802-21.826-30.113-29.216c15.144,4.659,36.991,16.928,63.582,35.578c0.755,0.53,1.509,1.059,2.263,1.593
	c0.421,0.298,0.845,0.601,1.268,0.902c15.85,11.294,31.346,23.366,44.477,34.002c-6.04-0.359-11.92-0.757-17.572-1.201
	c-0.002,0-0.005,0-0.007,0c-2.094-0.164-4.157-0.335-6.192-0.511c-0.147-0.013-0.291-0.026-0.438-0.039
	c-1.676-0.146-3.324-0.297-4.957-0.45c-0.502-0.047-1.005-0.094-1.503-0.142c-1.572-0.151-3.125-0.306-4.654-0.464
	c-0.193-0.02-0.391-0.039-0.583-0.059c-0.646-0.067-1.293-0.099-1.939-0.115c-0.182-0.005-0.363-0.005-0.544-0.006
	c-0.508-0.001-1.015,0.013-1.521,0.044c-0.149,0.009-0.299,0.011-0.447,0.023c-0.598,0.047-1.193,0.119-1.785,0.209
	c-0.213,0.032-0.422,0.073-0.633,0.111c-0.422,0.076-0.841,0.162-1.259,0.259c-0.208,0.049-0.417,0.094-0.624,0.148
	c-0.576,0.15-1.146,0.317-1.71,0.508c-0.13,0.044-0.257,0.097-0.387,0.143c-0.319,0.114-0.64,0.226-0.955,0.353
	c-3.313-4.927-6.946-9.947-10.849-14.986c-2.483-3.207-7.095-3.794-10.301-1.309c-3.206,2.483-3.792,7.095-1.309,10.301
	c4.013,5.182,7.713,10.327,11.048,15.353c-1.255,1.905-2.273,3.997-2.973,6.26c-8.632,27.907-22.927,83.416-21.678,141.638
	c0.713,33.235,6.473,62.791,17.118,87.844c12.879,30.311,33.031,54.343,59.898,71.428C161.765,507.193,178.676,512,195.921,512
	c3.077,0,6.168-0.154,9.253-0.463l18.105-1.815c5.144-0.516,10.361-0.516,15.507,0l18.104,1.815
	c20.372,2.041,40.862-2.724,57.685-13.423c27.601-17.553,48.102-42.421,60.933-73.914c10.528-25.841,15.963-56.331,16.154-90.624
	c0.036-6.428-0.114-13.077-0.446-19.76c-0.244-4.922-0.594-9.989-1.038-15.059c-1.583-18.026-4.294-35.173-7.349-50.45
	c26.499-11.522,43.892-37.674,43.892-66.999c0-25.303-12.927-47.638-32.519-60.764l0,0l0.678-1.387
	c-0.001-0.001-0.003-0.001-0.004-0.002c27.526,12.494,56.201,22.513,85.861,29.973c0.83,0.208,1.665,0.31,2.49,0.31
	c3.201,0,6.242-1.525,8.171-4.225C493.82,141.825,493.918,137.377,491.649,133.883z M176.227,154.251
	c0.149-0.448,0.297-0.893,0.445-1.337c4.43-13.256,8.972-25.513,13.532-36.502c0.092-0.221,0.17-0.447,0.239-0.675
	c11.439-27.482,21.257-42.651,28.745-50.991c-3.19,11.759-7.058,27.804-10.031,45.71c-4.694,28.268-5.871,53.189-3.517,74.246
	c-0.404-0.007-0.805-0.015-1.208-0.023c-3.158-0.059-6.322-0.127-9.481-0.207c-0.2-0.005-0.402-0.009-0.602-0.015l-18.699-28.448
	C175.843,155.423,176.034,154.832,176.227,154.251z M158.416,48.989c4.751,21.174,10.564,42.913,17.188,64.206
	c-3.407,8.368-6.806,17.456-10.195,27.232L148.631,114.9C151.724,93.579,155.073,70.56,158.416,48.989z M114.757,134.312
	L86.589,47.247l51.717,78.682l23.127,35.186c0,0.001,0.001,0.001,0.001,0.002l12.199,18.559c-0.04-0.033-0.082-0.068-0.123-0.101
	c-0.949-0.786-1.915-1.583-2.896-2.391c-0.026-0.021-0.052-0.043-0.078-0.064C154.771,164.146,134.933,148.491,114.757,134.312z
	 M106.18,201.544c0.546-1.767,1.553-3.289,2.852-4.468c0.027-0.023,0.056-0.043,0.083-0.067c1.303-1.157,2.871-1.945,4.533-2.312
	c0.051-0.011,0.103-0.021,0.154-0.032c0.261-0.053,0.524-0.094,0.789-0.126c0.081-0.01,0.161-0.021,0.243-0.028
	c0.244-0.024,0.49-0.034,0.737-0.04c0.088-0.002,0.176-0.008,0.265-0.007c0.326,0.002,0.652,0.016,0.978,0.051
	c1.888,0.197,3.811,0.388,5.759,0.575c0.121,0.011,0.239,0.023,0.36,0.035c1.977,0.188,3.988,0.37,6.026,0.548
	c0.037,0.003,0.074,0.006,0.111,0.01c14.196,1.232,29.818,2.193,46.628,2.863c0.008,0,0.015-0.001,0.023-0.001
	c0.348,0.014,0.703,0.025,1.053,0.039c0.652,0.025,1.31,0.048,1.965,0.073c1.816,0.068,3.631,0.134,5.46,0.195
	c0.547,0.018,1.099,0.034,1.647,0.052c1.423,0.046,2.845,0.094,4.265,0.135c0.071,0.002,0.141,0.003,0.212,0.003
	c0.005,0,0.011-0.001,0.016-0.001c0.096,0.003,0.194,0.004,0.29,0.007c3.542,0.1,7.114,0.188,10.714,0.261
	c0.695,0.014,1.385,0.026,2.079,0.039c3.076,0.059,6.169,0.108,9.279,0.147c0.433,0.005,0.873,0.016,1.305,0.021
	c0.028,0.001,0.056,0.001,0.085,0.001c0.015,0,0.029-0.002,0.044-0.002c5.593,0.065,11.23,0.1,16.9,0.1
	c19.866,0,39.356-0.406,57.719-1.174c0.114-0.002,0.227-0.006,0.341-0.014c6.959-0.293,13.75-0.638,20.337-1.035
	c0.113-0.006,0.225-0.009,0.339-0.021c12.698-0.768,24.641-1.721,35.483-2.854c4.75-0.503,9.22,2.46,10.634,7.03
	c0.392,1.266,0.806,2.629,1.235,4.067c-5.043,0.582-10.372,1.13-15.932,1.636c-0.494,0.045-0.978,0.139-1.447,0.28l-21.379,1.484
	c-22.337,1.453-47.665,2.344-73.175,2.577l-29.508-0.011c-25.681-0.257-51.043-1.176-73.348-2.658l-20.986-1.379
	c-0.598-0.222-1.227-0.366-1.871-0.425c-5.051-0.469-9.908-0.973-14.528-1.506C105.371,204.186,105.786,202.817,106.18,201.544z
	 M376.586,193.884l-2.257-2.256c-2.166-2.165-5.348-2.692-8.012-1.585c-5.075-7.007-13.621-11.074-22.591-10.133
	c-1.559,0.163-3.156,0.319-4.76,0.475c-0.455-3.619-3.536-6.419-7.278-6.419h-3.192c-4.055,0-7.342,3.287-7.342,7.342
	c0,0.196,0.014,0.389,0.029,0.582c-1.854,0.136-3.731,0.268-5.626,0.396c-0.008-0.326-0.024-0.652-0.024-0.978
	c0-21.004,17.088-38.092,38.092-38.092s38.092,17.088,38.092,38.092c0,12.908-6.663,24.864-17.185,31.821
	c-0.654-2.404-1.292-4.678-1.907-6.82c1.45-0.245,2.842-0.922,3.961-2.041C379.454,201.4,379.453,196.751,376.586,193.884z
	 M270.097,265.079l-39.707,39.707l-39.707-39.707l38.811-38.812l1.792,0.001L270.097,265.079z M252.442,226.188
	c20.268-0.282,40.231-0.969,58.562-2.017l-30.289,30.289L252.442,226.188z M180.065,254.461l-30.37-30.37
	c18.292,1.069,38.282,1.777,58.66,2.079L180.065,254.461z M219.772,315.404l-39.707,39.706l-39.707-39.706l39.707-39.707
	L219.772,315.404z M219.772,416.053l-39.707,39.707l-39.707-39.707l39.707-39.707L219.772,416.053z M190.683,365.728l39.707-39.706
	l39.707,39.706l-39.707,39.707L190.683,365.728z M280.715,376.346l39.707,39.707l-39.707,39.707l-39.707-39.707L280.715,376.346z
	 M291.333,365.728l8.504-8.504c2.932-2.932,2.932-7.686,0-10.618s-7.686-2.932-10.618,0l-8.504,8.504l-39.707-39.706l39.707-39.707
	l39.707,39.707l-6.544,6.544c-2.932,2.932-2.932,7.686,0,10.618l0,0c2.932,2.932,7.686,2.932,10.618,0l6.544-6.544l39.707,39.706
	l-39.707,39.707L291.333,365.728z M291.333,265.079l39.707-39.707l39.707,39.707l-39.707,39.707L291.333,265.079z M348.232,221.327
	c4.482-0.443,8.8-0.913,12.923-1.406c1.521,5.721,3.109,12.089,4.668,18.996L348.232,221.327z M100.911,219.921
	c3.765,0.45,7.691,0.881,11.755,1.289l-16.039,16.039C98.056,231.002,99.507,225.201,100.911,219.921z M91.296,263.816
	l38.444-38.444l39.707,39.707l-39.707,39.707l-38.814-38.814C91.047,265.248,91.172,264.534,91.296,263.816z M85.608,348.917
	c-1.247-22.062,0.048-44.069,2.603-64.425l30.911,30.911L85.608,348.917z M129.74,326.022l39.707,39.706l-39.707,39.707
	l-39.707-39.707L129.74,326.022z M90.742,387.673l28.38,28.38l-13.818,13.818C98.65,416.556,93.936,402.321,90.742,387.673z
	 M112.978,443.433l16.762-16.762l39.707,39.707l-17.241,17.241C135.597,472.432,122.75,458.745,112.978,443.433z M165.842,491.219
	l14.223-14.223l20.194,20.194C188.351,497.854,176.527,495.778,165.842,491.219z M241.263,495.212l-1.012-0.101
	c-3.059-0.307-6.139-0.46-9.219-0.46c-3.079,0-6.16,0.153-9.218,0.46l-2.18,0.218l-28.951-28.951l39.707-39.707l39.707,39.707
	L241.263,495.212z M260.607,497.104l20.108-20.108l14.606,14.606C284.514,496.045,272.583,497.956,260.607,497.104z
	 M309.093,484.139l-17.76-17.76l39.707-39.707l17.603,17.603C338.278,460.22,325.081,473.525,309.093,484.139z M356.41,430.805
	l-14.752-14.752l30.135-30.135C368.362,402.42,363.235,417.397,356.41,430.805z M376.425,350.17l-34.767-34.767l32.074-32.074
	c0.703,5.461,1.319,11.04,1.817,16.712c0.428,4.886,0.765,9.766,1,14.504c0.318,6.415,0.462,12.791,0.428,18.949
	C376.946,339.187,376.75,344.736,376.425,350.17z M412.036,181.308c0,22.421-12.725,42.518-32.372,52.278
	c-0.443-1.929-0.888-3.814-1.332-5.655c17.017-9.06,28.07-27.052,28.07-46.623c0-29.102-23.676-52.777-52.777-52.777
	s-52.776,23.675-52.776,52.777c0,0.618,0.023,1.238,0.045,1.857c-1.865,0.099-3.745,0.193-5.639,0.283
	c-0.026-0.715-0.04-1.429-0.04-2.141c0-32.208,26.203-58.411,58.41-58.411C385.833,122.897,412.036,149.1,412.036,181.308z
	 M323.331,61.595l96.552-11.276l52.936,81.529C419.183,116.991,369,93.408,323.331,61.595z"/>
<g>
</g>
<g>
</g>
<g>
</g>
<g>
</g>
<g>
</g>
<g>
</g>
<g>
</g>
<g>
</g>
<g>
</g>
<g>
</g>
<g>
</g>
<g>
</g>
<g>
</g>
<g>
</g>
<g>
</g>
</svg>
