<svg height="512" viewBox="0 0 128 128" width="512" xmlns="http://www.w3.org/2000/svg"><g><g><path d="m59.077 108.416a17.852 17.852 0 0 0 3.139-10.943 20.325 20.325 0 0 1 2.705-11.073 20.8 20.8 0 0 1 18.016-10.4 20.336 20.336 0 0 1 10.939 3.191 17.84 17.84 0 0 0 11.045 2.753 18 18 0 0 0 -1.421-35.944 17.81 17.81 0 0 0 -9.419 2.683 21.194 21.194 0 0 1 -11.144 3.317 20.8 20.8 0 0 1 -18.013-10.4 20.325 20.325 0 0 1 -2.705-11.069 17.852 17.852 0 0 0 -3.139-10.943 18 18 0 0 0 -30.418 19.204 17.819 17.819 0 0 0 7.032 6.816 21.178 21.178 0 0 1 8.445 7.992 20.8 20.8 0 0 1 0 20.8 21.178 21.178 0 0 1 -8.445 7.992 17.819 17.819 0 0 0 -7.032 6.816 18 18 0 0 0 30.415 19.208z" fill="#bae543"/><g fill="#fd637b"><circle cx="103.5" cy="64" r="12"/><circle cx="64.089" cy="64" r="6"/><circle cx="44.25" cy="29.792" r="12"/></g><circle cx="44.25" cy="29.792" fill="#da506a" r="3"/><circle cx="44.25" cy="98.208" fill="#fd637b" r="12"/><circle cx="44.25" cy="98.208" fill="#da506a" r="3"/><circle cx="103.5" cy="64" fill="#da506a" r="3"/></g><g fill="#2c0d12"><path d="m115.065 90.5a1.75 1.75 0 0 0 -2.381.674 55.811 55.811 0 0 1 -48.684 28.576c-.248 0-.508 0-.757-.009a1.73 1.73 0 0 0 -1.812 1.686 1.75 1.75 0 0 0 1.685 1.812c.291.011.593.011.884.011a59.314 59.314 0 0 0 51.737-30.366 1.749 1.749 0 0 0 -.672-2.384z"/><path d="m63.245 8.259c.249-.01.508-.013.757-.009a55.817 55.817 0 0 1 48.692 28.594 1.75 1.75 0 1 0 3.056-1.707 59.322 59.322 0 0 0 -51.75-30.387c-.291 0-.593 0-.884.011a1.75 1.75 0 0 0 -1.685 1.812 1.731 1.731 0 0 0 1.814 1.686z"/><path d="m8.252 64a55.561 55.561 0 0 1 7.871-28.57 1.748 1.748 0 0 0 .249-.9v-.02a1.748 1.748 0 0 0 -3.289-.817 59.289 59.289 0 0 0 .038 60.676 1.75 1.75 0 1 0 3-1.8 55.561 55.561 0 0 1 -7.869-28.569z"/><path d="m72.33 110.48a1.758 1.758 0 0 0 .321-.029 47.381 47.381 0 0 0 27.219-15.722 1.75 1.75 0 0 0 -2.657-2.279 43.874 43.874 0 0 1 -25.2 14.56 1.75 1.75 0 0 0 .318 3.47z"/><path d="m72.651 17.549a1.75 1.75 0 1 0 -.639 3.441 43.835 43.835 0 0 1 25.2 14.569 1.75 1.75 0 0 0 2.658-2.278 47.349 47.349 0 0 0 -27.219-15.732z"/><path d="m21.676 47.2a1.753 1.753 0 0 0 -2.234 1.065 47.365 47.365 0 0 0 0 31.47 1.75 1.75 0 1 0 3.3-1.17 43.86 43.86 0 0 1 0-29.13 1.75 1.75 0 0 0 -1.066-2.235z"/><path d="m118.217 50.839a19.689 19.689 0 0 0 -25.057-3.639 19.486 19.486 0 0 1 -10.222 3.05 19.107 19.107 0 0 1 -13.954-6.082 1.751 1.751 0 0 0 -2.565 2.383 22.623 22.623 0 0 0 16.519 7.2 22.982 22.982 0 0 0 12.067-3.58 16.246 16.246 0 0 1 24.644 15.683 16.418 16.418 0 0 1 -14.857 14.346 16.043 16.043 0 0 1 -9.968-2.482 22.032 22.032 0 0 0 -11.886-3.468 22.612 22.612 0 0 0 -19.528 11.274l-.016.029a22.045 22.045 0 0 0 -2.925 12 16.072 16.072 0 0 1 -2.833 9.875 16.417 16.417 0 0 1 -19.854 5.692 16.111 16.111 0 0 1 -8.96-9.838 16.277 16.277 0 0 1 1.357-13.2 16.1 16.1 0 0 1 6.344-6.148 22.986 22.986 0 0 0 9.134-8.661 22.61 22.61 0 0 0 0-22.548 22.986 22.986 0 0 0 -9.134-8.661 16.1 16.1 0 0 1 -6.344-6.148 16.277 16.277 0 0 1 -1.357-13.2 16.111 16.111 0 0 1 8.96-9.838 16.419 16.419 0 0 1 19.854 5.692 16.072 16.072 0 0 1 2.833 9.875c-.025.556-.028 1.113-.011 1.666a1.75 1.75 0 1 0 3.5-.111q-.021-.7.01-1.4a19.723 19.723 0 0 0 -27.591-18.923 19.771 19.771 0 0 0 -9.229 27.99 19.6 19.6 0 0 0 7.721 7.482 19.493 19.493 0 0 1 7.757 7.327 19.1 19.1 0 0 1 0 19.048 19.493 19.493 0 0 1 -7.757 7.327 19.685 19.685 0 0 0 -9.372 23.52 19.825 19.825 0 0 0 10.88 11.952 19.723 19.723 0 0 0 27.589-18.923 18.543 18.543 0 0 1 2.473-10.116l.014-.026a19.107 19.107 0 0 1 16.491-9.5 18.547 18.547 0 0 1 10 2.917 19.724 19.724 0 0 0 30.186-14.43 19.828 19.828 0 0 0 -4.913-15.406z"/><path d="m66.023 39.961a18.747 18.747 0 0 1 -1.058-2.47 1.75 1.75 0 0 0 -3.309 1.143 22.015 22.015 0 0 0 1.259 2.934 1.749 1.749 0 1 0 3.108-1.607z"/><path d="m76.5 72.54a1.77 1.77 0 0 0 .424-.052 24.947 24.947 0 0 1 6.019-.738 1.75 1.75 0 1 0 0-3.5 28.432 28.432 0 0 0 -6.864.842 1.75 1.75 0 0 0 .421 3.448z"/><path d="m117.252 64a13.75 13.75 0 1 0 -13.752 13.75 13.766 13.766 0 0 0 13.752-13.75zm-24 0a10.25 10.25 0 1 1 10.248 10.25 10.261 10.261 0 0 1 -10.248-10.25z"/><path d="m64.091 71.75a7.75 7.75 0 1 0 -7.75-7.75 7.759 7.759 0 0 0 7.75 7.75zm0-12a4.25 4.25 0 1 1 -4.25 4.25 4.255 4.255 0 0 1 4.25-4.25z"/><path d="m56.159 22.917a13.745 13.745 0 1 0 -5.032 18.783 13.767 13.767 0 0 0 5.032-18.783zm-6.782 15.752a10.249 10.249 0 1 1 3.751-14 10.176 10.176 0 0 1 -3.751 14z"/><path d="m45.481 25.2a4.75 4.75 0 1 0 -2.459 9.176 4.806 4.806 0 0 0 1.237.164 4.751 4.751 0 0 0 1.222-9.34zm-.022 4.911a1.247 1.247 0 1 1 -.124-.948 1.237 1.237 0 0 1 .124.952z"/><path d="m54.611 104.511a1.749 1.749 0 0 0 2.3-.923 13.757 13.757 0 1 0 -6.526 6.93 1.75 1.75 0 0 0 -1.558-3.135 10.25 10.25 0 1 1 4.864-5.168 1.75 1.75 0 0 0 .92 2.296z"/><path d="m46.627 94.1a4.75 4.75 0 0 0 -6.489 1.738 4.753 4.753 0 0 0 4.106 7.127 4.8 4.8 0 0 0 1.237-.164 4.749 4.749 0 0 0 1.146-8.7zm-1.292 4.738a1.251 1.251 0 1 1 .124-.948 1.244 1.244 0 0 1 -.124.943z"/><path d="m108.252 64a4.75 4.75 0 1 0 -4.75 4.75 4.756 4.756 0 0 0 4.75-4.75zm-6 0a1.25 1.25 0 1 1 1.25 1.25 1.251 1.251 0 0 1 -1.25-1.25z"/></g></g></svg>