<?xml version="1.0" encoding="iso-8859-1"?>
<!-- Generator: Adobe Illustrator 19.0.0, SVG Export Plug-In . SVG Version: 6.00 Build 0)  -->
<svg version="1.1" id="Capa_1" xmlns="http://www.w3.org/2000/svg" xmlns:xlink="http://www.w3.org/1999/xlink" x="0px" y="0px"
	 viewBox="0 0 480 480" style="enable-background:new 0 0 480 480;" xml:space="preserve">
<path style="fill:#FF6536;" d="M72,344.073h336v64H72V344.073z"/>
<path style="fill:#FFA900;" d="M312,344.073v-132c0-33.137,26.863-60,60-60s60,26.863,60,60l0,0v12c-22.091,0-40,17.909-40,40v80
	H312z"/>
<path style="fill:#6CBBC7;" d="M168,344.073v-132c0-33.137-26.863-60-60-60l0,0c-33.137,0-60,26.863-60,60l0,0v12
	c22.091,0,40,17.909,40,40v80H168z"/>
<path style="fill:#FF421D;" d="M360,344.073H120l120-216L360,344.073z"/>
<g>
	<circle style="fill:#FCE9CC;" cx="240" cy="96.073" r="32"/>
	<circle style="fill:#FCE9CC;" cx="32" cy="248.073" r="32"/>
	<circle style="fill:#FCE9CC;" cx="448" cy="248.073" r="32"/>
</g>
<path style="fill:#FF6536;" d="M112,344.073l64,64l64-64H112z"/>
<path style="fill:#FFA900;" d="M72,384.073v24h104l-64-64L72,384.073z"/>
<path style="fill:#FF6536;" d="M72,344.073v40l40-40H72z"/>
<path style="fill:#FFA900;" d="M176,408.073h128l-64-64L176,408.073z"/>
<g>
	<path style="fill:#FF6536;" d="M240,344.073l64,64l64-64H240z"/>
	<path style="fill:#FF6536;" d="M368,344.073l40,40v-40H368z"/>
</g>
<path style="fill:#FFA900;" d="M304,408.073h104v-24l-40-40L304,408.073z"/>
<path d="M448,216.073c-2.704,0.035-5.393,0.417-8,1.136v-5.136c0-37.555-30.445-68-68-68s-68,30.445-68,68v14.728l-55.56-100
	c17.047-4.663,27.085-22.263,22.422-39.31c-4.663-17.047-22.263-27.085-39.31-22.422s-27.085,22.263-22.422,39.31
	c2.985,10.912,11.51,19.437,22.422,22.422l-55.552,100v-14.728c0-37.555-30.445-68-68-68s-68,30.445-68,68v5.136
	c-2.607-0.719-5.296-1.101-8-1.136c-17.673,0-32,14.327-32,32s14.327,32,32,32s32-14.327,32-32c-0.012-4.529-0.994-9.003-2.88-13.12
	c11.467,5.155,18.854,16.547,18.88,29.12v72H64v80h352v-80h-16v-72c0.026-12.573,7.413-23.965,18.88-29.12
	c-1.886,4.117-2.868,8.591-2.88,13.12c0,17.673,14.327,32,32,32s32-14.327,32-32S465.673,216.073,448,216.073z M240,355.385
	l44.688,44.688h-89.376L240,355.385z M176,396.761l-44.688-44.688h89.376L176,396.761z M259.312,352.073h89.376L304,396.761
	L259.312,352.073z M224,96.073c0.001-8.837,7.165-15.999,16.002-15.998c8.837,0.001,15.999,7.165,15.998,16.002
	c-0.001,8.739-7.014,15.861-15.752,15.996L240,111.601l-0.248,0.472C231.012,111.937,223.999,104.814,224,96.073L224,96.073z
	 M240,144.545l64,115.2l42.4,76.328H133.6l42.4-76.328L240,144.545z M32,264.073c-8.837,0-16-7.163-16-16c0-8.837,7.163-16,16-16
	s16,7.163,16,16C48,256.91,40.837,264.073,32,264.073z M56,216.737v-4.664c0-28.719,23.281-52,52-52s52,23.281,52,52v43.528
	l-44.712,80.472H96v-72C95.971,240.66,79.08,220.672,56,216.737L56,216.737z M92.688,352.073L80,364.761v-12.688H92.688z
	 M80,387.385l32-32l44.688,44.688H80V387.385z M323.312,400.073L368,355.385l32,32v12.688H323.312z M400,364.761l-12.688-12.688H400
	V364.761z M384,264.073v72h-19.288L320,255.601v-43.528c0-28.719,23.281-52,52-52s52,23.281,52,52v4.664
	C400.92,220.672,384.029,240.66,384,264.073z M448,264.073c-8.837,0-16-7.163-16-16c0-8.837,7.163-16,16-16s16,7.163,16,16
	C464,256.909,456.837,264.073,448,264.073z"/>
<g>
</g>
<g>
</g>
<g>
</g>
<g>
</g>
<g>
</g>
<g>
</g>
<g>
</g>
<g>
</g>
<g>
</g>
<g>
</g>
<g>
</g>
<g>
</g>
<g>
</g>
<g>
</g>
<g>
</g>
</svg>
